<svg width="192" height="192" viewBox="0 0 192 192" fill="none" xmlns="http://www.w3.org/2000/svg">
  <!-- FlowsyAI Icon for PWA -->
  <rect width="192" height="192" rx="32" fill="#1a1a1a"/>

  <!-- Circuit/Flow Design -->
  <g id="flowsy-icon">
    <!-- Purple circuit paths -->
    <path d="M48 80 C58 80 58 80 68 80 L78 80 C88 80 88 90 88 100 L88 110" stroke="#8B5CF6" stroke-width="6" fill="none" stroke-linecap="round"/>
    <path d="M48 100 C58 100 58 100 68 100 L78 100" stroke="#8B5CF6" stroke-width="6" fill="none" stroke-linecap="round"/>
    <path d="M48 120 C58 120 58 120 68 120 L78 120" stroke="#8B5CF6" stroke-width="6" fill="none" stroke-linecap="round"/>

    <!-- Green circuit paths -->
    <path d="M88 110 C98 110 98 110 108 110 L118 110 C128 110 128 120 128 130 L128 140" stroke="#10B981" stroke-width="6" fill="none" stroke-linecap="round"/>
    <path d="M88 130 C98 130 98 130 108 130 L118 130" stroke="#10B981" stroke-width="6" fill="none" stroke-linecap="round"/>

    <!-- Connection nodes -->
    <circle cx="48" cy="80" r="8" fill="#8B5CF6"/>
    <circle cx="78" cy="80" r="8" fill="#8B5CF6"/>
    <circle cx="88" cy="100" r="8" fill="#8B5CF6"/>
    <circle cx="48" cy="100" r="8" fill="#8B5CF6"/>
    <circle cx="78" cy="100" r="8" fill="#8B5CF6"/>
    <circle cx="48" cy="120" r="8" fill="#8B5CF6"/>
    <circle cx="78" cy="120" r="8" fill="#8B5CF6"/>
    <circle cx="88" cy="110" r="8" fill="#10B981"/>
    <circle cx="118" cy="110" r="8" fill="#10B981"/>
    <circle cx="128" cy="130" r="8" fill="#10B981"/>
    <circle cx="88" cy="130" r="8" fill="#10B981"/>
    <circle cx="118" cy="130" r="8" fill="#10B981"/>
    <circle cx="128" cy="140" r="8" fill="#10B981"/>
  </g>
</svg>
